<?xml version="1.0" encoding="utf-8"?>
<!-- Generator: Adobe Illustrator 16.0.0, SVG Export Plug-In . SVG Version: 6.00 Build 0)  -->
<!DOCTYPE svg PUBLIC "-//W3C//DTD SVG 1.1//EN" "http://www.w3.org/Graphics/SVG/1.1/DTD/svg11.dtd">
<svg version="1.1" id="Capa_1" xmlns="http://www.w3.org/2000/svg" xmlns:xlink="http://www.w3.org/1999/xlink" x="0px" y="0px"
	 width="512px" height="512px" viewBox="0 0 512 512" enable-background="new 0 0 512 512" xml:space="preserve">
<g>
	<path fill="#5D5955" d="M255.99,0C114.623,0,0,114.623,0,255.989S114.623,512,255.99,512C397.355,512,512,397.355,512,255.989
		S397.355,0,255.99,0z M309.281,396.748c-13.177,5.202-23.666,9.146-31.533,11.877c-7.845,2.73-16.969,4.096-27.35,4.096
		c-15.95,0-28.368-3.901-37.211-11.682c-8.842-7.779-13.241-17.641-13.241-29.625c0-4.66,0.325-9.428,0.976-14.281
		c0.672-4.855,1.733-10.316,3.186-16.449l16.492-58.255c1.452-5.591,2.709-10.901,3.706-15.842
		c0.997-4.985,1.474-9.558,1.474-13.719c0-7.412-1.539-12.613-4.595-15.539c-3.099-2.926-8.929-4.356-17.619-4.356
		c-4.248,0-8.625,0.628-13.111,1.95c-4.443,1.365-8.301,2.601-11.465,3.814l4.356-17.944c10.792-4.399,21.13-8.17,30.99-11.291
		c9.861-3.164,19.18-4.725,27.957-4.725c15.843,0,28.065,3.857,36.669,11.486c8.561,7.65,12.873,17.598,12.873,29.82
		c0,2.536-0.303,7-0.889,13.372c-0.585,6.393-1.69,12.223-3.294,17.576l-16.405,58.08c-1.344,4.66-2.536,9.99-3.619,15.951
		c-1.063,5.959-1.582,10.51-1.582,13.566c0,7.715,1.712,12.981,5.18,15.777c3.424,2.795,9.427,4.204,17.923,4.204
		c4.009,0,8.495-0.716,13.566-2.103c5.027-1.387,8.668-2.622,10.966-3.684L309.281,396.748z M306.376,161.001
		c-7.65,7.108-16.86,10.663-27.632,10.663c-10.749,0-20.024-3.554-27.74-10.663c-7.672-7.108-11.551-15.755-11.551-25.854
		c0-10.078,3.901-18.747,11.551-25.92c7.716-7.195,16.991-10.771,27.74-10.771c10.771,0,20.004,3.576,27.632,10.771
		c7.65,7.173,11.486,15.842,11.486,25.92C317.863,145.267,314.027,153.893,306.376,161.001z"/>
</g>
</svg>
